<svg xmlns="http://www.w3.org/2000/svg" width="32" height="32"><path d="M15.998.448C7.18.448.03 7.598.03 16.418c0 7.056 4.575 13.041 10.921 15.154.8.146 1.09-.347 1.09-.77 0-.379-.013-1.384-.021-2.716-4.442.965-5.38-2.141-5.38-2.141-.726-1.844-1.773-2.336-1.773-2.336-1.45-.99.11-.971.11-.971 1.603.114 2.446 1.646 2.446 1.646 1.424 2.44 3.738 1.735 4.648 1.327.145-1.032.557-1.736 1.014-2.135-3.547-.403-7.275-1.773-7.275-7.893 0-1.743.623-3.169 1.644-4.285-.165-.404-.713-2.028.156-4.227 0 0 1.341-.43 4.392 1.637A15.304 15.304 0 0116 8.171c1.356.004 2.723.184 3.998.537 3.05-2.066 4.388-1.637 4.388-1.637.871 2.2.323 3.823.158 4.227 1.024 1.116 1.643 2.542 1.643 4.285 0 6.135-3.735 7.485-7.293 7.88.574.493 1.085 1.468 1.085 2.958 0 2.134-.02 3.857-.02 4.38 0 .428.287.925 1.098.77 6.341-2.117 10.913-8.099 10.913-15.153 0-8.82-7.151-15.97-15.972-15.97" fill="#1b1817" fill-rule="oddeven"/></svg>