<svg xmlns="http://www.w3.org/2000/svg" version="1.0" width="48" height="32"><path d="M9.568 5.69l-.02 2.73h3.173v19.644h2.425c.16-8.026.188-17.616.207-22.348-2.6-.004-4.435-.002-5.785-.026zm9.587 2.268c-1.067 1.261-1.827 3.978-1.827 4.706 0 .194 1.852.077 2.628.077.528-2.161.714-2.538 1.738-3.812 1.518-1.742 6.626-.81 6.979 1.005.807 2.436.41 3.98-.383 5.058-.786 1.069-2.086 2.376-5.093 5.335-4.025 3.977-5.384 5.578-5.384 6.548v1.212h13.58v-2.91h-4.607c-2.522 0-5.005.039-4.883-.112.724-.898 2.119-2.459 4.398-4.593 2.231-2.134 4.365-4.51 4.656-5.286 1.44-2.706.715-7.028-2.764-8.827-3.551-1.823-7.27-.505-9.038 1.6zM4.388 11.36C1.457 11.582.362 13.238.4 15.6c.094 4.721 4.358 3.597 6.597 6.353 1.552 2.037-.437 4.85-2.959 4.22-1.164-.292-2.037-1.844-1.843-3.105-.035-1.57-2.625-1.436-2.134.97 1.018 4.996 7.47 5.578 9.652.825 1.081-3.598-2.07-5.64-4.51-6.839-2.668-1.212-2.74-2.354-2.426-3.346.62-1.97 3.75-1.744 4.074.63.097 1.116 2.327 1.122 2.377-.048.135-2.12-1.724-4.028-4.84-3.9zm28.945 1.378c3.748 7.48 3.89 7.522 6.58 13.381-2.527 5.798-.07.31-2.527 5.901 1.114.04 1.544.101 2.296-.012 1.94-4.54 5.484-12.737 8.25-19.222-.929-.551-.866-.346-1.909-.968-1.854 4.48-3.276 8.112-5.137 11.916-1.507-3.172-3.809-7.974-5.737-12.072z"/></svg>